<svg width="100%" height="100%" viewBox="-1 -1 23 23" xmlns="http://www.w3.org/2000/svg" xmlns:xlink="http://www.w3.org/1999/xlink" shape-rendering="crispEdges" id="qr code"><rect id="qr background" fill-opacity="1" fill="rgb(255, 255, 255)" x="-1" y="-1" width="23" height="23"></rect><path fill-opacity="1" fill="rgb(0, 0, 0)" id="qr dark pixels" fill-rule="evenodd" d="M 8 0 L 9 0 L 9 1 L 8 1 z M 10 0 L 12 0 L 12 1 L 13 1 L 13 2 L 11 2 L 11 3 L 10 3 z M 9 3 L 10 3 L 10 5 L 9 5 z M 11 3 L 12 3 L 12 5 L 13 5 L 13 8 L 11 8 L 11 7 L 12 7 L 12 6 L 11 6 z M 8 6 L 9 6 L 9 8 L 8 8 z M 10 6 L 11 6 L 11 7 L 10 7 z M 0 8 L 2 8 L 2 9 L 1 9 L 1 10 L 3 10 L 3 11 L 1 11 L 1 12 L 0 12 z M 3 8 L 5 8 L 5 9 L 6 9 L 6 10 L 7 10 L 7 11 L 4 11 L 4 10 L 3 10 z M 6 8 L 7 8 L 7 9 L 6 9 z M 9 8 L 11 8 L 11 9 L 9 9 z M 14 8 L 15 8 L 15 10 L 14 10 z M 20 8 L 21 8 L 21 9 L 20 9 z M 11 9 L 12 9 L 12 10 L 11 10 z M 17 9 L 20 9 L 20 10 L 21 10 L 21 11 L 19 11 L 19 12 L 18 12 L 18 11 L 17 11 z M 10 10 L 11 10 L 11 11 L 10 11 z M 12 10 L 14 10 L 14 12 L 13 12 L 13 11 L 12 11 z M 3 11 L 4 11 L 4 12 L 3 12 z M 7 11 L 10 11 L 10 12 L 8 12 L 8 13 L 6 13 L 6 12 L 7 12 z M 15 11 L 16 11 L 16 12 L 15 12 z M 2 12 L 3 12 L 3 13 L 2 13 z M 4 12 L 5 12 L 5 13 L 4 13 z M 10 12 L 11 12 L 11 13 L 10 13 z M 12 12 L 13 12 L 13 13 L 12 13 z M 19 12 L 20 12 L 20 14 L 19 14 L 19 15 L 21 15 L 21 17 L 20 17 L 20 16 L 17 16 L 17 15 L 18 15 L 18 14 L 17 14 L 17 15 L 16 15 L 16 16 L 14 16 L 14 15 L 12 15 L 12 16 L 11 16 L 11 13 L 12 13 L 12 14 L 14 14 L 14 13 L 15 13 L 15 14 L 16 14 L 16 13 L 19 13 z M 8 13 L 9 13 L 9 14 L 8 14 z M 9 14 L 10 14 L 10 15 L 9 15 z M 8 16 L 11 16 L 11 17 L 12 17 L 12 18 L 10 18 L 10 17 L 9 17 L 9 18 L 8 18 z M 12 16 L 13 16 L 13 17 L 12 17 z M 16 16 L 17 16 L 17 17 L 16 17 z M 13 17 L 15 17 L 15 18 L 14 18 L 14 19 L 12 19 L 12 18 L 13 18 z M 17 17 L 20 17 L 20 18 L 21 18 L 21 20 L 18 20 L 18 19 L 17 19 L 17 20 L 16 20 L 16 19 L 15 19 L 15 18 L 17 18 z M 9 18 L 10 18 L 10 19 L 9 19 z M 8 19 L 9 19 L 9 20 L 10 20 L 10 19 L 11 19 L 11 20 L 12 20 L 12 21 L 8 21 z M 14 19 L 15 19 L 15 20 L 16 20 L 16 21 L 13 21 L 13 20 L 14 20 z M 17 20 L 18 20 L 18 21 L 17 21 z"></path><path id="qr squares" d="M0,0h7h0v0v7v0h0h-7h0v0v-7v0h0zM1,1h5h0v0v5v0h0h-5h0v0v-5v0h0zM2,2h3h0v0v3v0h0h-3h0v0v-3v0h0z M14,0h7h0v0v7v0h0h-7h0v0v-7v0h0zM15,1h5h0v0v5v0h0h-5h0v0v-5v0h0zM16,2h3h0v0v3v0h0h-3h0v0v-3v0h0z M0,14h7h0v0v7v0h0h-7h0v0v-7v0h0zM1,15h5h0v0v5v0h0h-5h0v0v-5v0h0zM2,16h3h0v0v3v0h0h-3h0v0v-3v0h0z" fill-rule="evenodd" fill-opacity="1" fill="rgb(0, 0, 0)"></path></svg>